<?xml version="1.0" encoding="UTF-8"?>
<svg version="1.1" xmlns="http://www.w3.org/2000/svg" width="301" height="301">
<path d="M0 0 C0.72944824 0.19303711 1.45889648 0.38607422 2.21044922 0.58496094 C21.0636443 5.62849083 39.29349261 15.18220712 54 28 C54.86238281 28.73734375 55.72476563 29.4746875 56.61328125 30.234375 C59.12745368 32.43965222 61.57045651 34.70199231 64 37 C64.87140625 37.80695312 65.7428125 38.61390625 66.640625 39.4453125 C85.22003756 57.22846452 98.42472332 80.15335766 105 105 C105.3088916 106.06516846 105.3088916 106.06516846 105.62402344 107.15185547 C112.53649562 131.61851253 112.06333458 163.6431021 105 188 C104.80696289 188.72944824 104.61392578 189.45889648 104.41503906 190.21044922 C99.37150917 209.0636443 89.81779288 227.29349261 77 242 C76.26265625 242.86238281 75.5253125 243.72476563 74.765625 244.61328125 C72.56034778 247.12745368 70.29800769 249.57045651 68 252 C66.78957031 253.30710937 66.78957031 253.30710937 65.5546875 254.640625 C47.77153548 273.22003756 24.84664234 286.42472332 0 293 C-1.06516846 293.3088916 -1.06516846 293.3088916 -2.15185547 293.62402344 C-26.61851253 300.53649562 -58.6431021 300.06333458 -83 293 C-83.72944824 292.80696289 -84.45889648 292.61392578 -85.21044922 292.41503906 C-104.0636443 287.37150917 -122.29349261 277.81779288 -137 265 C-137.86238281 264.26265625 -138.72476563 263.5253125 -139.61328125 262.765625 C-142.12745368 260.56034778 -144.57045651 258.29800769 -147 256 C-148.30710937 254.78957031 -148.30710937 254.78957031 -149.640625 253.5546875 C-168.22003756 235.77153548 -181.42472332 212.84664234 -188 188 C-188.20592773 187.2898877 -188.41185547 186.57977539 -188.62402344 185.84814453 C-195.53649562 161.38148747 -195.06333458 129.3568979 -188 105 C-187.80696289 104.27055176 -187.61392578 103.54110352 -187.41503906 102.78955078 C-182.37150917 83.9363557 -172.81779288 65.70650739 -160 51 C-159.26265625 50.13761719 -158.5253125 49.27523437 -157.765625 48.38671875 C-155.56034778 45.87254632 -153.29800769 43.42954349 -151 41 C-150.19304687 40.12859375 -149.38609375 39.2571875 -148.5546875 38.359375 C-130.77153548 19.77996244 -107.84664234 6.57527668 -83 0 C-82.2898877 -0.20592773 -81.57977539 -0.41185547 -80.84814453 -0.62402344 C-56.38148747 -7.53649562 -24.3568979 -7.06333458 0 0 Z " fill="#FEFEFE" transform="translate(192,4)"/>
<path d="M0 0 C2.00365303 -0.01698011 4.00702106 -0.06081797 6.01025391 -0.10522461 C17.65008832 -0.1803576 28.41139174 1.18169854 37.08447266 9.51391602 C44.2113084 17.51844089 44.40971886 26.0060211 43.85693359 36.28051758 C43.15361572 43.87708709 39.85695413 48.86851826 34.15869141 53.72485352 C26.25781018 58.71096694 19.91996665 59.85067197 10.60791016 59.54516602 C9.55152344 59.52711914 8.49513672 59.50907227 7.40673828 59.49047852 C4.82698466 59.44378614 2.24920198 59.3783219 -0.32958984 59.29516602 C-0.3564408 56.81592801 -0.37635532 54.33697762 -0.39208984 51.85766602 C-0.40046875 51.15061523 -0.40884766 50.44356445 -0.41748047 49.71508789 C-0.42612572 47.90823042 -0.38178996 46.10128999 -0.32958984 44.29516602 C1.59779203 42.36778414 5.1669214 42.98154133 7.73291016 42.85766602 C13.2698812 42.55366772 18.35984147 41.92085031 23.67041016 40.29516602 C25.48775664 34.41551564 26.33388561 29.33120553 24.67041016 23.29516602 C22.4245169 20.30064168 21.22171649 19.47893479 17.67041016 18.29516602 C10.08041016 17.96516602 2.49041016 17.63516602 -5.32958984 17.29516602 C-5.32958984 40.06516602 -5.32958984 62.83516602 -5.32958984 86.29516602 C-11.26958984 86.29516602 -17.20958984 86.29516602 -23.32958984 86.29516602 C-23.42004035 76.48963586 -23.49339183 66.68438381 -23.53683853 56.8785305 C-23.55769317 52.325031 -23.58597178 47.77183227 -23.63134766 43.21850586 C-23.67488153 38.82239459 -23.69874293 34.42657222 -23.70909882 30.03026199 C-23.71647669 28.35494058 -23.73088413 26.67963457 -23.75251007 25.00443649 C-23.78164528 22.65357326 -23.78554177 20.30389625 -23.78369141 17.95288086 C-23.80526306 16.91925415 -23.80526306 16.91925415 -23.82727051 15.86474609 C-23.7851423 10.90218156 -22.39293361 8.13749722 -19.32958984 4.29516602 C-13.59251527 -0.74650558 -7.27523927 0.04273396 0 0 Z " fill="#0F0803" transform="translate(209.32958984375,82.704833984375)"/>
<path d="M0 0 C2.9833117 1.61087201 5.61318204 3.6247907 8.29296875 5.69384766 C11.09026104 7.83422434 13.93571023 9.90869201 16.77709961 11.98999023 C18.43455388 13.21152209 20.08379018 14.44427887 21.72485352 15.68774414 C25.4900941 18.52574345 29.1664931 21.18466969 33.33984375 23.390625 C37.35313299 25.59669998 40.13497874 27.33990107 43 31 C44.61288186 37.88226338 43.87264293 45.05146079 43 52 C36.64852985 48.89843284 31.11909332 44.66067351 25.4296875 40.5 C22.73435455 38.5307769 20.02872789 36.57618895 17.3203125 34.625 C16.50530273 34.03775146 15.69029297 33.45050293 14.85058594 32.84545898 C13.21106772 31.66465016 11.5710996 30.48446574 9.93066406 29.30493164 C9.1775293 28.76215576 8.42439453 28.21937988 7.6484375 27.66015625 C6.96958496 27.17168213 6.29073242 26.68320801 5.59130859 26.17993164 C4 25 4 25 3 24 C2.67 44.46 2.34 64.92 2 86 C-3.61 86 -9.22 86 -15 86 C-15.06779866 76.04680868 -15.1228293 66.09377094 -15.15543652 56.14040089 C-15.17108697 51.51856209 -15.19231393 46.89688958 -15.22631836 42.27514648 C-15.25893392 37.81421463 -15.27685768 33.35344264 -15.28463173 28.89240074 C-15.29017129 27.19115368 -15.30098876 25.48991528 -15.31719017 23.78873634 C-15.33899391 21.40429456 -15.34196574 19.0205119 -15.34057617 16.63598633 C-15.351362 15.93395584 -15.36214783 15.23192535 -15.3732605 14.50862122 C-15.33712722 8.77176806 -13.68002986 5.72669736 -9.75 1.6875 C-6.00252056 -0.61208966 -4.35573778 -0.78546091 0 0 Z " fill="#0E0803" transform="translate(106,83)"/>
<path d="M0 0 C5.28 0 10.56 0 16 0 C16.09043929 10.19668214 16.16379562 20.39309703 16.20724869 30.5900898 C16.22810605 35.32518565 16.25638979 40.0599924 16.30175781 44.79492188 C16.34528173 49.36609608 16.36915104 53.93699255 16.37950897 58.508358 C16.38688861 60.25066372 16.40129947 61.99295457 16.42292023 63.73514175 C16.4520419 66.1793911 16.45595245 68.62249907 16.45410156 71.06689453 C16.47567322 72.14259956 16.47567322 72.14259956 16.49768066 73.24003601 C16.45371598 78.62075716 14.81115185 82.18884815 11 86 C5.33479074 87.12327425 0.73661215 87.02552599 -4.30078125 84.05078125 C-7.13009903 81.92921647 -9.80764544 79.63225464 -12.47119141 77.30761719 C-14.64139353 75.4514047 -16.93007999 73.78860376 -19.25 72.125 C-20.11753906 71.47144531 -20.98507813 70.81789063 -21.87890625 70.14453125 C-24.38172085 68.4248251 -26.80018551 67.00388571 -29.46484375 65.57421875 C-41.14218108 58.94038189 -41.14218108 58.94038189 -42.75683594 53.40576172 C-43.47137423 47.22405134 -42.95203869 41.13095685 -42 35 C-37.21004787 36.56015584 -33.73818332 39.26821159 -29.8125 42.3125 C-28.39955413 43.39078767 -26.98544431 44.46755147 -25.5703125 45.54296875 C-24.83071289 46.1054834 -24.09111328 46.66799805 -23.32910156 47.24755859 C-19.32224008 50.26236486 -15.25621446 53.19448561 -11.1875 56.125 C-10.41704346 56.68098877 -9.64658691 57.23697754 -8.8527832 57.80981445 C-5.92602518 59.91698866 -3.00118947 61.99920702 0 64 C0 42.88 0 21.76 0 0 Z " fill="#0B0602" transform="translate(155,83)"/>
<path d="M0 0 C5.28 0 10.56 0 16 0 C16 28.38 16 56.76 16 86 C10.72 86 5.44 86 0 86 C0 57.62 0 29.24 0 0 Z " fill="#0A0502" transform="translate(61,83)"/>
<path d="M0 0 C1.91015625 0.1328125 1.91015625 0.1328125 3.91015625 1.1328125 C4.57015625 0.8028125 5.23015625 0.4728125 5.91015625 0.1328125 C12.25133272 -0.32836397 12.25133272 -0.32836397 14.78515625 1.4453125 C17.46117202 5.45933615 17.03869843 9.68117949 17.0078125 14.30078125 C17.00639755 15.09559402 17.0049826 15.8904068 17.00352478 16.70930481 C16.99793003 19.24634575 16.98537853 21.78329825 16.97265625 24.3203125 C16.96764057 26.04101435 16.96307778 27.76171758 16.95898438 29.48242188 C16.94796232 33.6992528 16.93070131 37.91601766 16.91015625 42.1328125 C14.93015625 42.1328125 12.95015625 42.1328125 10.91015625 42.1328125 C10.41515625 23.8178125 10.41515625 23.8178125 9.91015625 5.1328125 C8.92015625 5.6278125 8.92015625 5.6278125 7.91015625 6.1328125 C7.58015625 18.0128125 7.25015625 29.8928125 6.91015625 42.1328125 C4.93015625 42.1328125 2.95015625 42.1328125 0.91015625 42.1328125 C0.58015625 29.9228125 0.25015625 17.7128125 -0.08984375 5.1328125 C-1.07984375 5.1328125 -2.06984375 5.1328125 -3.08984375 5.1328125 C-3.41984375 17.3428125 -3.74984375 29.5528125 -4.08984375 42.1328125 C-6.06984375 42.1328125 -8.04984375 42.1328125 -10.08984375 42.1328125 C-10.16416793 37.09744473 -10.21852776 32.06239842 -10.25463867 27.02661133 C-10.26969715 25.31464066 -10.2901483 23.60270839 -10.31616211 21.89086914 C-10.35267565 19.42584745 -10.36959937 16.96133715 -10.3828125 14.49609375 C-10.39829636 13.73444412 -10.41378021 12.97279449 -10.42973328 12.18806458 C-10.43116633 7.63219465 -9.85414481 4.78431216 -7.08984375 1.1328125 C-5.19099279 -0.76603846 -2.51736472 0.00913744 0 0 Z " fill="#170E06" transform="translate(69.08984375,222.8671875)"/>
<path d="M0 0 C0.99 0.05414063 0.99 0.05414063 2 0.109375 C2.66 0.15578125 3.32 0.2021875 4 0.25 C6.00054924 0.25 8.0043777 0.24969219 10 0.109375 C10.66 0.07328125 11.32 0.0371875 12 0 C12.99 -0.06960937 12.99 -0.06960937 14 -0.140625 C17.05435647 0.455929 18.09746323 1.82218701 20 4.25 C20.45410156 7.54980469 20.45410156 7.54980469 20.390625 11.421875 C20.38496521 12.1042926 20.37930542 12.78671021 20.37347412 13.48980713 C20.35115636 15.66059762 20.30097508 17.82971206 20.25 20 C20.22992876 21.4752365 20.21167907 22.95049899 20.1953125 24.42578125 C20.1513088 28.03439501 20.08231583 31.64203381 20 35.25 C18.02 35.25 16.04 35.25 14 35.25 C13.505 21.39 13.505 21.39 13 7.25 C12.01 7.25 11.02 7.25 10 7.25 C9.67 16.49 9.34 25.73 9 35.25 C7.02 35.25 5.04 35.25 3 35.25 C2.67 26.01 2.34 16.77 2 7.25 C1.01 7.25 0.02 7.25 -1 7.25 C-1.33 16.49 -1.66 25.73 -2 35.25 C-3.98 35.25 -5.96 35.25 -8 35.25 C-8.09905303 30.90842948 -8.17155301 26.56746146 -8.21972656 22.22509766 C-8.23981301 20.7487441 -8.26708801 19.27246981 -8.30175781 17.79638672 C-8.35041184 15.67135038 -8.37299673 13.54736766 -8.390625 11.421875 C-8.41157227 10.1440918 -8.43251953 8.86630859 -8.45410156 7.54980469 C-8 4.25 -8 4.25 -6.10058594 1.82617188 C-3.76663255 0.07489304 -2.8595416 -0.20106152 0 0 Z " fill="#0A0703" transform="translate(135,229.75)"/>
<path d="M0 0 C1.98 0 3.96 0 6 0 C6.33 3.63 6.66 7.26 7 11 C7.9075 10.896875 8.815 10.79375 9.75 10.6875 C13 11 13 11 15.16772461 13.14453125 C18.33922371 18.08708334 17.61578971 23.28232725 17.5625 29 C17.58634766 30.175625 17.61019531 31.35125 17.63476562 32.5625 C17.62019773 41.10899675 17.62019773 41.10899675 14.71875 45.27734375 C10.57852452 47.90067627 8.83423564 47.69060509 4 47 C1.77832031 45.57714844 1.77832031 45.57714844 0 43 C-0.55260911 39.73028111 -0.46485689 36.51082542 -0.390625 33.203125 C-0.38496521 32.25435486 -0.37930542 31.30558472 -0.37347412 30.32806396 C-0.35110609 27.30152664 -0.30090858 24.27617871 -0.25 21.25 C-0.22993557 19.1966317 -0.2116847 17.14324481 -0.1953125 15.08984375 C-0.15123981 10.05943844 -0.08220891 5.02992079 0 0 Z " fill="#0B0703" transform="translate(175,173)"/>
<path d="M0 0 C2.92479027 2.16326059 3.88570507 3.34614674 4.51757812 6.9609375 C4.52208984 8.08757812 4.52660156 9.21421875 4.53125 10.375 C4.53640625 11.60734375 4.5415625 12.8396875 4.546875 14.109375 C4.53140625 15.39328125 4.5159375 16.6771875 4.5 18 C4.51546875 19.28390625 4.5309375 20.5678125 4.546875 21.890625 C4.54171875 23.12296875 4.5365625 24.3553125 4.53125 25.625 C4.52673828 26.75164062 4.52222656 27.87828125 4.51757812 29.0390625 C3.88570507 32.65385326 2.92479027 33.83673941 0 36 C-4.86097528 36.69442504 -6.83594076 36.72753703 -11 34.125 C-13.80310088 29.74515487 -14.03316098 26.06582159 -13 21 C-9.9946299 16.75712457 -6.97920721 15.27375068 -2 14 C-2.33 11.69 -2.66 9.38 -3 7 C-3.99 7 -4.98 7 -6 7 C-6.33 8.98 -6.66 10.96 -7 13 C-8.98 13 -10.96 13 -13 13 C-13.60150376 5.90225564 -13.60150376 5.90225564 -11 2 C-6.84437903 -0.77041398 -4.93332128 -0.70476018 0 0 Z " fill="#110B04" transform="translate(217,230)"/>
<path d="M0 0 C2.92479027 2.16326059 3.88570507 3.34614674 4.51757812 6.9609375 C4.52208984 8.08757812 4.52660156 9.21421875 4.53125 10.375 C4.53640625 11.60734375 4.5415625 12.8396875 4.546875 14.109375 C4.53140625 15.39328125 4.5159375 16.6771875 4.5 18 C4.51546875 19.28390625 4.5309375 20.5678125 4.546875 21.890625 C4.54171875 23.12296875 4.5365625 24.3553125 4.53125 25.625 C4.52673828 26.75164062 4.52222656 27.87828125 4.51757812 29.0390625 C3.88570507 32.65385326 2.92479027 33.83673941 0 36 C-4.86097528 36.69442504 -6.83594076 36.72753703 -11 34.125 C-13.80310088 29.74515487 -14.03316098 26.06582159 -13 21 C-9.9946299 16.75712457 -6.97920721 15.27375068 -2 14 C-2.33 11.69 -2.66 9.38 -3 7 C-3.99 7 -4.98 7 -6 7 C-6.33 8.98 -6.66 10.96 -7 13 C-8.98 13 -10.96 13 -13 13 C-13.60150376 5.90225564 -13.60150376 5.90225564 -11 2 C-6.84437903 -0.77041398 -4.93332128 -0.70476018 0 0 Z " fill="#110B04" transform="translate(103,230)"/>
<path d="M0 0 C1.97265625 0.4296875 1.97265625 0.4296875 4.97265625 2.2421875 C7.49162388 6.25679215 7.85521833 9.13706471 7.671875 13.828125 C6.8123688 17.02606427 5.87469714 17.8247276 3.09765625 19.5546875 C1.74190628 20.22041419 0.36834176 20.85235574 -1.02734375 21.4296875 C-1.68734375 21.7596875 -2.34734375 22.0896875 -3.02734375 22.4296875 C-3.02734375 24.7396875 -3.02734375 27.0496875 -3.02734375 29.4296875 C-2.03734375 29.4296875 -1.04734375 29.4296875 -0.02734375 29.4296875 C0.30265625 27.4496875 0.63265625 25.4696875 0.97265625 23.4296875 C2.95265625 23.4296875 4.93265625 23.4296875 6.97265625 23.4296875 C7.57416001 30.52743186 7.57416001 30.52743186 4.97265625 34.4296875 C0.81703528 37.20010148 -1.09402247 37.13444768 -6.02734375 36.4296875 C-8.95213402 34.26642691 -9.91304882 33.08354076 -10.54492188 29.46875 C-10.54943359 28.34210938 -10.55394531 27.21546875 -10.55859375 26.0546875 C-10.56375 24.82234375 -10.56890625 23.59 -10.57421875 22.3203125 C-10.55875 21.03640625 -10.54328125 19.7525 -10.52734375 18.4296875 C-10.5428125 17.14578125 -10.55828125 15.861875 -10.57421875 14.5390625 C-10.5690625 13.30671875 -10.56390625 12.074375 -10.55859375 10.8046875 C-10.55408203 9.67804688 -10.54957031 8.55140625 -10.54492188 7.390625 C-9.50015236 1.41375485 -5.89388367 -0.37456457 0 0 Z " fill="#100A04" transform="translate(171.02734375,229.5703125)"/>
<path d="M0 0 C1.97265625 0.4296875 1.97265625 0.4296875 4.97265625 2.2421875 C7.49162388 6.25679215 7.85521833 9.13706471 7.671875 13.828125 C6.8123688 17.02606427 5.87469714 17.8247276 3.09765625 19.5546875 C1.74190628 20.22041419 0.36834176 20.85235574 -1.02734375 21.4296875 C-1.68734375 21.7596875 -2.34734375 22.0896875 -3.02734375 22.4296875 C-3.02734375 24.7396875 -3.02734375 27.0496875 -3.02734375 29.4296875 C-2.03734375 29.4296875 -1.04734375 29.4296875 -0.02734375 29.4296875 C0.30265625 27.4496875 0.63265625 25.4696875 0.97265625 23.4296875 C2.95265625 23.4296875 4.93265625 23.4296875 6.97265625 23.4296875 C7.57416001 30.52743186 7.57416001 30.52743186 4.97265625 34.4296875 C0.81703528 37.20010148 -1.09402247 37.13444768 -6.02734375 36.4296875 C-8.95213402 34.26642691 -9.91304882 33.08354076 -10.54492188 29.46875 C-10.54943359 28.34210938 -10.55394531 27.21546875 -10.55859375 26.0546875 C-10.56375 24.82234375 -10.56890625 23.59 -10.57421875 22.3203125 C-10.55875 21.03640625 -10.54328125 19.7525 -10.52734375 18.4296875 C-10.5428125 17.14578125 -10.55828125 15.861875 -10.57421875 14.5390625 C-10.5690625 13.30671875 -10.56390625 12.074375 -10.55859375 10.8046875 C-10.55408203 9.67804688 -10.54957031 8.55140625 -10.54492188 7.390625 C-9.50015236 1.41375485 -5.89388367 -0.37456457 0 0 Z " fill="#100A04" transform="translate(133.02734375,183.5703125)"/>
<path d="M0 0 C3.36415705 1.00862064 4.8861674 2.95477789 7.09765625 5.62890625 C7.6652832 8.95043945 7.6652832 8.95043945 7.5859375 12.6796875 C7.57886276 13.33849411 7.57178802 13.99730072 7.5644989 14.67607117 C7.53666604 16.76570659 7.47396444 18.85259101 7.41015625 20.94140625 C7.3850583 22.36389339 7.36224773 23.78642284 7.34179688 25.20898438 C7.28688071 28.68317486 7.2006931 32.15577175 7.09765625 35.62890625 C5.11765625 35.62890625 3.13765625 35.62890625 1.09765625 35.62890625 C0.76765625 26.38890625 0.43765625 17.14890625 0.09765625 7.62890625 C-0.89234375 7.62890625 -1.88234375 7.62890625 -2.90234375 7.62890625 C-3.23234375 16.86890625 -3.56234375 26.10890625 -3.90234375 35.62890625 C-5.88234375 35.62890625 -7.86234375 35.62890625 -9.90234375 35.62890625 C-10.00139678 31.28733573 -10.07389676 26.94636771 -10.12207031 22.60400391 C-10.14215676 21.12765035 -10.16943176 19.65137606 -10.20410156 18.17529297 C-10.25275559 16.05025663 -10.27534048 13.92627391 -10.29296875 11.80078125 C-10.31391602 10.52299805 -10.33486328 9.24521484 -10.35644531 7.92871094 C-9.90234375 4.62890625 -9.90234375 4.62890625 -8.12402344 2.21582031 C-5.45620881 0.31023844 -3.24329084 0.1096142 0 0 Z " fill="#0A0603" transform="translate(88.90234375,183.37109375)"/>
<path d="M0 0 C2.5 1.4375 2.5 1.4375 4 4 C4.3130292 7.03116605 4.23343397 9.96535839 4 13 C2.02 13 0.04 13 -2 13 C-2.33 11.02 -2.66 9.04 -3 7 C-3.99 7 -4.98 7 -6 7 C-6.37133754 9.34445485 -6.37133754 9.34445485 -6 12 C-4.08452281 14.04893159 -4.08452281 14.04893159 -1.5625 15.6875 C2.9286578 18.8573156 2.9286578 18.8573156 4 21 C4.4675731 25.8290337 4.90539977 30.37782542 2.5 34.6875 C-1.03168402 36.54163411 -4.16042198 36.8591531 -8 36 C-11 34 -11 34 -13 31 C-13.39956124 28.19269313 -13.24224238 25.85846006 -13 23 C-11.02 23 -9.04 23 -7 23 C-6.67 24.98 -6.34 26.96 -6 29 C-5.01 29 -4.02 29 -3 29 C-3 26.69 -3 24.38 -3 22 C-4.0828125 21.690625 -4.0828125 21.690625 -5.1875 21.375 C-8.78621809 19.61562671 -11.16408538 17.53694572 -13 14 C-13.69532924 10.84042393 -13.70810667 8.15745924 -13 5 C-9.39690234 -0.51724329 -6.13515775 -0.87645111 0 0 Z " fill="#150D06" transform="translate(113,184)"/>
<path d="M0 0 C4.95 0 9.9 0 15 0 C15 1.65 15 3.3 15 5 C14 6 14 6 12.15234375 6.09765625 C10.1015625 6.06510417 8.05078125 6.03255208 6 6 C6 10.62 6 15.24 6 20 C8.64 20 11.28 20 14 20 C14 21.98 14 23.96 14 26 C11.36 26 8.72 26 6 26 C6 30.29 6 34.58 6 39 C7.299375 38.979375 8.59875 38.95875 9.9375 38.9375 C11.29165633 38.91600546 12.64756083 38.92851801 14 39 C15 40 15 40 15 45 C10.05 45 5.1 45 0 45 C0 30.15 0 15.3 0 0 Z " fill="#0F0904" transform="translate(60,174)"/>
<path d="M0 0 C3.59006454 0.80332137 4.97678728 2.4476028 6.97265625 5.44140625 C7.37221749 8.24871312 7.21489863 10.58294619 6.97265625 13.44140625 C4.99265625 13.44140625 3.01265625 13.44140625 0.97265625 13.44140625 C0.64265625 11.46140625 0.31265625 9.48140625 -0.02734375 7.44140625 C-1.01734375 7.44140625 -2.00734375 7.44140625 -3.02734375 7.44140625 C-3.02734375 14.70140625 -3.02734375 21.96140625 -3.02734375 29.44140625 C-2.03734375 29.44140625 -1.04734375 29.44140625 -0.02734375 29.44140625 C0.30265625 27.46140625 0.63265625 25.48140625 0.97265625 23.44140625 C2.95265625 23.44140625 4.93265625 23.44140625 6.97265625 23.44140625 C7.57416001 30.53915061 7.57416001 30.53915061 4.97265625 34.44140625 C0.81703528 37.21182023 -1.09402247 37.14616643 -6.02734375 36.44140625 C-8.95213402 34.27814566 -9.91304882 33.09525951 -10.54492188 29.48046875 C-10.54943359 28.35382813 -10.55394531 27.2271875 -10.55859375 26.06640625 C-10.56375 24.8340625 -10.56890625 23.60171875 -10.57421875 22.33203125 C-10.55875 21.048125 -10.54328125 19.76421875 -10.52734375 18.44140625 C-10.5428125 17.1575 -10.55828125 15.87359375 -10.57421875 14.55078125 C-10.5690625 13.3184375 -10.56390625 12.08609375 -10.55859375 10.81640625 C-10.55408203 9.68976563 -10.54957031 8.563125 -10.54492188 7.40234375 C-9.49821337 1.41438111 -5.89430467 -0.34153915 0 0 Z " fill="#120B05" transform="translate(193.02734375,229.55859375)"/>
<path d="M0 0 C1.98 0 3.96 0 6 0 C6 2.31 6 4.62 6 7 C7.65 7 9.3 7 11 7 C11 8.98 11 10.96 11 13 C9.35 13 7.7 13 6 13 C6 20.26 6 27.52 6 35 C7.65 35 9.3 35 11 35 C11 36.98 11 38.96 11 41 C8.35963647 41.97791242 7.12733368 42.03638105 4.375 41.25 C2 40 2 40 0 37 C-0.22705078 34.45629883 -0.22705078 34.45629883 -0.1953125 31.45703125 C-0.18886719 30.38388672 -0.18242188 29.31074219 -0.17578125 28.20507812 C-0.15902344 27.08552734 -0.14226562 25.96597656 -0.125 24.8125 C-0.11597656 23.68134766 -0.10695313 22.55019531 -0.09765625 21.38476562 C-0.07406862 18.58963172 -0.041153 15.79492155 0 13 C-1.32 12.67 -2.64 12.34 -4 12 C-4 10.35 -4 8.7 -4 7 C-2.68 7 -1.36 7 0 7 C0 4.69 0 2.38 0 0 Z " fill="#100A04" transform="translate(114,224)"/>
<path d="M0 0 C2.4375 1.5 2.4375 1.5 4 4 C4.32111824 6.75845833 4.18630402 9.20543968 4 12 C2.02 12 0.04 12 -2 12 C-2 10.02 -2 8.04 -2 6 C-2.99 6 -3.98 6 -5 6 C-5 15.57 -5 25.14 -5 35 C-6.98 35 -8.96 35 -11 35 C-11.09905303 30.65842948 -11.17155301 26.31746146 -11.21972656 21.97509766 C-11.23981301 20.4987441 -11.26708801 19.02246981 -11.30175781 17.54638672 C-11.35041184 15.42135038 -11.37299673 13.29736766 -11.390625 11.171875 C-11.41157227 9.8940918 -11.43251953 8.61630859 -11.45410156 7.29980469 C-11 4 -11 4 -9.19433594 1.58300781 C-5.99242058 -0.72687416 -3.84795198 -0.54970743 0 0 Z " fill="#0A0703" transform="translate(167,184)"/>
<path d="M0 0 C0 6.6 0 13.2 0 20 C-5.28 20 -10.56 20 -16 20 C-16 9.83435583 -16 9.83435583 -12 5 C-8.1619285 1.96152673 -4.92690577 0 0 0 Z " fill="#150B05" transform="translate(77,54)"/>
<path d="M0 0 C1.98 0 3.96 0 6 0 C6 11.22 6 22.44 6 34 C4.02 34 2.04 34 0 34 C0 22.78 0 11.56 0 0 Z " fill="#070502" transform="translate(145,185)"/>
<path d="M0 0 C1.98 0.495 1.98 0.495 4 1 C4 8.26 4 15.52 4 23 C2.68 23.33 1.36 23.66 0 24 C-1.65394117 22.34605883 -1.12999683 20.39684587 -1.1328125 18.125 C-1.13410156 17.14015625 -1.13539063 16.1553125 -1.13671875 15.140625 C-1.13285156 14.10421875 -1.12898437 13.0678125 -1.125 12 C-1.13080078 10.44539062 -1.13080078 10.44539062 -1.13671875 8.859375 C-1.13542969 7.87453125 -1.13414062 6.8896875 -1.1328125 5.875 C-1.13168457 4.96492187 -1.13055664 4.05484375 -1.12939453 3.1171875 C-1 1 -1 1 0 0 Z " fill="#FEFDFD" transform="translate(182,190)"/>
<path d="M0 0 C0.9075 0.00257813 1.815 0.00515625 2.75 0.0078125 C4.11125 0.00394531 4.11125 0.00394531 5.5 0 C7.75 0.1328125 7.75 0.1328125 8.75 1.1328125 C8.75 2.7828125 8.75 4.4328125 8.75 6.1328125 C4.79 6.1328125 0.83 6.1328125 -3.25 6.1328125 C-3.25 0.19184028 -3.25 0.19184028 0 0 Z " fill="#27180A" transform="translate(198.25,197.8671875)"/>
<path d="M0 0 C2.625 0.375 2.625 0.375 5 1 C5.625 2.875 5.625 2.875 6 5 C4 7 4 7 1.375 7.125 C0.59125 7.08375 -0.1925 7.0425 -1 7 C-1.625 4.625 -1.625 4.625 -2 2 C-1.34 1.34 -0.68 0.68 0 0 Z " fill="#1F1409" transform="translate(146,173)"/>
<path d="M0 0 C0 2.64 0 5.28 0 8 C-1.9375 8.5625 -1.9375 8.5625 -4 9 C-4.33 8.67 -4.66 8.34 -5 8 C-4.6875 4.5 -4.6875 4.5 -4 1 C-2 0 -2 0 0 0 Z " fill="#FEFDFC" transform="translate(215,251)"/>
<path d="M0 0 C0 2.64 0 5.28 0 8 C-1.9375 8.5625 -1.9375 8.5625 -4 9 C-4.33 8.67 -4.66 8.34 -5 8 C-4.6875 4.5 -4.6875 4.5 -4 1 C-2 0 -2 0 0 0 Z " fill="#FEFDFC" transform="translate(101,251)"/>
<path d="M0 0 C2.0625 0.4375 2.0625 0.4375 4 1 C4 2.98 4 4.96 4 7 C2.35 7.66 0.7 8.32 -1 9 C-1.09765625 2.84765625 -1.09765625 2.84765625 -1 1 C-0.67 0.67 -0.34 0.34 0 0 Z " fill="#FCF9F6" transform="translate(168,236)"/>
<path d="M0 0 C2.0625 0.4375 2.0625 0.4375 4 1 C4 2.98 4 4.96 4 7 C2.35 7.66 0.7 8.32 -1 9 C-1.09765625 2.84765625 -1.09765625 2.84765625 -1 1 C-0.67 0.67 -0.34 0.34 0 0 Z " fill="#FCF9F6" transform="translate(130,190)"/>
</svg>
